<?xml version="1.0" standalone="no"?><!DOCTYPE svg PUBLIC "-//W3C//DTD SVG 1.1//EN" "http://www.w3.org/Graphics/SVG/1.1/DTD/svg11.dtd"><svg t="1639380830609" class="icon" viewBox="0 0 1024 1024" version="1.1" xmlns="http://www.w3.org/2000/svg" p-id="8014" xmlns:xlink="http://www.w3.org/1999/xlink" width="200" height="200"><defs><style type="text/css"></style></defs><path d="M260.62477129 355.93953372H122.31797273a29.20764689 29.20764689 0 0 1-29.2076469-29.20764691V188.42508824a29.20764689 29.20764689 0 0 1 29.2076469-29.20764691h138.30679856a29.20764689 29.20764689 0 0 1 29.20764691 29.20764691v138.30679857a29.20764689 29.20764689 0 0 1-29.20764691 29.20764691zM901.76125575 355.93953372H376.93992984a29.26491679 29.26491679 0 0 1-29.26491679-29.20764691V188.42508824a29.20764689 29.20764689 0 0 1 29.26491679-29.20764691h524.82132591a29.20764689 29.20764689 0 0 1 29.20764689 29.20764691v138.30679857a29.20764689 29.20764689 0 0 1-29.20764689 29.20764691zM901.76125575 610.38968113H376.93992984a29.26491679 29.26491679 0 0 1-29.26491679-29.26491679V442.87523566a29.26491679 29.26491679 0 0 1 29.26491679-29.26491679h524.82132591a29.20764689 29.20764689 0 0 1 29.20764689 29.26491679v138.24952868a29.20764689 29.20764689 0 0 1-29.20764689 29.26491679zM901.76125575 865.01163824H376.93992984a29.26491679 29.26491679 0 0 1-29.26491679-29.26491679v-138.24952867a29.20764689 29.20764689 0 0 1 29.26491679-29.20764691h524.82132591a29.20764689 29.20764689 0 0 1 29.20764689 29.20764691v138.24952867a29.20764689 29.20764689 0 0 1-29.20764689 29.26491679zM260.62477129 610.38968113H122.31797273a29.20764689 29.20764689 0 0 1-29.2076469-29.26491679V442.87523566a29.20764689 29.20764689 0 0 1 29.2076469-29.26491679h138.30679856a29.20764689 29.20764689 0 0 1 29.20764691 29.26491679v138.24952868a29.20764689 29.20764689 0 0 1-29.20764691 29.26491679zM260.62477129 864.78255867H122.31797273a29.20764689 29.20764689 0 0 1-29.2076469-29.20764691v-138.30679857a29.20764689 29.20764689 0 0 1 29.2076469-29.20764691h138.30679856a29.20764689 29.20764689 0 0 1 29.20764691 29.20764691v138.30679857a29.20764689 29.20764689 0 0 1-29.20764691 29.20764691z" fill="#2c2c2c" p-id="8015"></path></svg>